<mxfile host="Electron" modified="2023-08-22T06:13:08.127Z" agent="Mozilla/5.0 (X11; Linux x86_64) AppleWebKit/537.36 (KHTML, like Gecko) draw.io/21.6.8 Chrome/114.0.5735.289 Electron/25.5.0 Safari/537.36" etag="L-GrOdBVLvNGvqToplAw" version="21.6.8" type="device">
  <diagram name="第 1 页" id="JI23qEoGcGX2h7BZufqP">
    <mxGraphModel dx="1115" dy="1003" grid="1" gridSize="10" guides="1" tooltips="1" connect="1" arrows="1" fold="1" page="1" pageScale="1" pageWidth="827" pageHeight="1169" math="0" shadow="0">
      <root>
        <mxCell id="0" />
        <mxCell id="1" parent="0" />
        <mxCell id="ZkP7bw6YxGhgmPXyzqwK-25" value="meta-updater" style="rounded=0;whiteSpace=wrap;html=1;fillColor=#b0e3e6;strokeColor=#0e8088;verticalAlign=bottom;fontStyle=1;fontSize=16;" vertex="1" parent="1">
          <mxGeometry x="5" y="440" width="725" height="280" as="geometry" />
        </mxCell>
        <mxCell id="ZkP7bw6YxGhgmPXyzqwK-24" value="TreeHub" style="rounded=0;whiteSpace=wrap;html=1;fillColor=#fad7ac;strokeColor=#b46504;verticalAlign=bottom;fontStyle=1;fontSize=16;" vertex="1" parent="1">
          <mxGeometry x="185" y="460" width="535" height="220" as="geometry" />
        </mxCell>
        <mxCell id="ZkP7bw6YxGhgmPXyzqwK-5" style="edgeStyle=orthogonalEdgeStyle;rounded=0;orthogonalLoop=1;jettySize=auto;html=1;exitX=0.5;exitY=0;exitDx=0;exitDy=0;" edge="1" parent="1" source="ZkP7bw6YxGhgmPXyzqwK-1" target="ZkP7bw6YxGhgmPXyzqwK-4">
          <mxGeometry relative="1" as="geometry" />
        </mxCell>
        <mxCell id="ZkP7bw6YxGhgmPXyzqwK-1" value="build system&lt;br&gt;(&lt;b&gt;Yocto&lt;/b&gt;)" style="rounded=0;whiteSpace=wrap;html=1;fillColor=#d0cee2;strokeColor=#56517e;" vertex="1" parent="1">
          <mxGeometry x="30" y="600" width="120" height="60" as="geometry" />
        </mxCell>
        <mxCell id="ZkP7bw6YxGhgmPXyzqwK-3" style="edgeStyle=orthogonalEdgeStyle;rounded=0;orthogonalLoop=1;jettySize=auto;html=1;exitX=0.5;exitY=0;exitDx=0;exitDy=0;" edge="1" parent="1" source="ZkP7bw6YxGhgmPXyzqwK-2" target="ZkP7bw6YxGhgmPXyzqwK-1">
          <mxGeometry relative="1" as="geometry" />
        </mxCell>
        <mxCell id="ZkP7bw6YxGhgmPXyzqwK-2" value="UI tool / cmd line tool" style="rounded=0;whiteSpace=wrap;html=1;fillColor=#d0cee2;strokeColor=#56517e;" vertex="1" parent="1">
          <mxGeometry x="20" y="760" width="140" height="60" as="geometry" />
        </mxCell>
        <mxCell id="ZkP7bw6YxGhgmPXyzqwK-7" style="edgeStyle=orthogonalEdgeStyle;rounded=0;orthogonalLoop=1;jettySize=auto;html=1;exitX=1;exitY=0.5;exitDx=0;exitDy=0;" edge="1" parent="1" source="ZkP7bw6YxGhgmPXyzqwK-4" target="ZkP7bw6YxGhgmPXyzqwK-6">
          <mxGeometry relative="1" as="geometry" />
        </mxCell>
        <mxCell id="ZkP7bw6YxGhgmPXyzqwK-4" value="Generated&amp;nbsp;&lt;br&gt;files in boot parition&lt;br&gt;files in rootfs" style="rounded=0;whiteSpace=wrap;html=1;fillColor=#d0cee2;strokeColor=#56517e;" vertex="1" parent="1">
          <mxGeometry x="30" y="490" width="120" height="60" as="geometry" />
        </mxCell>
        <mxCell id="ZkP7bw6YxGhgmPXyzqwK-9" style="edgeStyle=orthogonalEdgeStyle;rounded=0;orthogonalLoop=1;jettySize=auto;html=1;exitX=1;exitY=0.5;exitDx=0;exitDy=0;" edge="1" parent="1" source="ZkP7bw6YxGhgmPXyzqwK-6" target="ZkP7bw6YxGhgmPXyzqwK-8">
          <mxGeometry relative="1" as="geometry" />
        </mxCell>
        <mxCell id="ZkP7bw6YxGhgmPXyzqwK-6" value="OSTree Management&lt;br&gt;and delta files" style="rounded=0;whiteSpace=wrap;html=1;fillColor=#d0cee2;strokeColor=#56517e;" vertex="1" parent="1">
          <mxGeometry x="210" y="490" width="120" height="60" as="geometry" />
        </mxCell>
        <mxCell id="ZkP7bw6YxGhgmPXyzqwK-11" style="edgeStyle=orthogonalEdgeStyle;rounded=0;orthogonalLoop=1;jettySize=auto;html=1;exitX=1;exitY=0.5;exitDx=0;exitDy=0;" edge="1" parent="1" source="ZkP7bw6YxGhgmPXyzqwK-8" target="ZkP7bw6YxGhgmPXyzqwK-10">
          <mxGeometry relative="1" as="geometry" />
        </mxCell>
        <mxCell id="ZkP7bw6YxGhgmPXyzqwK-8" value="Signed OSTree&lt;br&gt;metadata&lt;br&gt;" style="rounded=0;whiteSpace=wrap;html=1;fillColor=#d0cee2;strokeColor=#56517e;" vertex="1" parent="1">
          <mxGeometry x="390" y="490" width="120" height="60" as="geometry" />
        </mxCell>
        <mxCell id="ZkP7bw6YxGhgmPXyzqwK-13" style="edgeStyle=orthogonalEdgeStyle;rounded=0;orthogonalLoop=1;jettySize=auto;html=1;exitX=0.5;exitY=1;exitDx=0;exitDy=0;" edge="1" parent="1" source="ZkP7bw6YxGhgmPXyzqwK-10" target="ZkP7bw6YxGhgmPXyzqwK-12">
          <mxGeometry relative="1" as="geometry" />
        </mxCell>
        <mxCell id="ZkP7bw6YxGhgmPXyzqwK-10" value="Uptane management&lt;br&gt;to uptane metadata" style="rounded=0;whiteSpace=wrap;html=1;fillColor=#d0cee2;strokeColor=#56517e;" vertex="1" parent="1">
          <mxGeometry x="580" y="490" width="120" height="60" as="geometry" />
        </mxCell>
        <mxCell id="ZkP7bw6YxGhgmPXyzqwK-15" style="edgeStyle=orthogonalEdgeStyle;rounded=0;orthogonalLoop=1;jettySize=auto;html=1;exitX=0.5;exitY=1;exitDx=0;exitDy=0;" edge="1" parent="1" source="ZkP7bw6YxGhgmPXyzqwK-12" target="ZkP7bw6YxGhgmPXyzqwK-14">
          <mxGeometry relative="1" as="geometry" />
        </mxCell>
        <mxCell id="ZkP7bw6YxGhgmPXyzqwK-12" value="metadata deployment" style="rounded=0;whiteSpace=wrap;html=1;fillColor=#d0cee2;strokeColor=#56517e;" vertex="1" parent="1">
          <mxGeometry x="580" y="600" width="120" height="60" as="geometry" />
        </mxCell>
        <mxCell id="ZkP7bw6YxGhgmPXyzqwK-14" value="Client pull metadata" style="rounded=0;whiteSpace=wrap;html=1;fillColor=#d0cee2;strokeColor=#56517e;" vertex="1" parent="1">
          <mxGeometry x="580" y="760" width="120" height="60" as="geometry" />
        </mxCell>
        <mxCell id="ZkP7bw6YxGhgmPXyzqwK-16" value="trigger" style="text;html=1;align=center;verticalAlign=middle;resizable=0;points=[];autosize=1;strokeColor=none;fillColor=none;" vertex="1" parent="1">
          <mxGeometry x="90" y="668" width="60" height="30" as="geometry" />
        </mxCell>
        <mxCell id="ZkP7bw6YxGhgmPXyzqwK-17" value="gen" style="text;html=1;align=center;verticalAlign=middle;resizable=0;points=[];autosize=1;strokeColor=none;fillColor=none;" vertex="1" parent="1">
          <mxGeometry x="95" y="560" width="40" height="30" as="geometry" />
        </mxCell>
        <mxCell id="ZkP7bw6YxGhgmPXyzqwK-18" value="touch" style="text;html=1;align=center;verticalAlign=middle;resizable=0;points=[];autosize=1;strokeColor=none;fillColor=none;fontStyle=1" vertex="1" parent="1">
          <mxGeometry x="145" y="490" width="60" height="30" as="geometry" />
        </mxCell>
        <mxCell id="ZkP7bw6YxGhgmPXyzqwK-19" value="touch" style="text;html=1;align=center;verticalAlign=middle;resizable=0;points=[];autosize=1;strokeColor=none;fillColor=none;fontStyle=1" vertex="1" parent="1">
          <mxGeometry x="325" y="490" width="60" height="30" as="geometry" />
        </mxCell>
        <mxCell id="ZkP7bw6YxGhgmPXyzqwK-21" value="touch" style="text;html=1;align=center;verticalAlign=middle;resizable=0;points=[];autosize=1;strokeColor=none;fillColor=none;fontStyle=1" vertex="1" parent="1">
          <mxGeometry x="515" y="490" width="60" height="30" as="geometry" />
        </mxCell>
        <mxCell id="ZkP7bw6YxGhgmPXyzqwK-22" value="touch" style="text;html=1;align=center;verticalAlign=middle;resizable=0;points=[];autosize=1;strokeColor=none;fillColor=none;" vertex="1" parent="1">
          <mxGeometry x="640" y="560" width="50" height="30" as="geometry" />
        </mxCell>
        <mxCell id="ZkP7bw6YxGhgmPXyzqwK-29" style="rounded=0;orthogonalLoop=1;jettySize=auto;html=1;exitX=1;exitY=0.25;exitDx=0;exitDy=0;entryX=0;entryY=0.5;entryDx=0;entryDy=0;" edge="1" parent="1" source="ZkP7bw6YxGhgmPXyzqwK-26" target="ZkP7bw6YxGhgmPXyzqwK-27">
          <mxGeometry relative="1" as="geometry" />
        </mxCell>
        <mxCell id="ZkP7bw6YxGhgmPXyzqwK-30" style="rounded=0;orthogonalLoop=1;jettySize=auto;html=1;exitX=1;exitY=0.75;exitDx=0;exitDy=0;entryX=0;entryY=0.5;entryDx=0;entryDy=0;" edge="1" parent="1" source="ZkP7bw6YxGhgmPXyzqwK-26" target="ZkP7bw6YxGhgmPXyzqwK-28">
          <mxGeometry relative="1" as="geometry" />
        </mxCell>
        <mxCell id="ZkP7bw6YxGhgmPXyzqwK-26" value="Software Management&lt;br&gt;Type" style="rounded=1;whiteSpace=wrap;html=1;" vertex="1" parent="1">
          <mxGeometry x="115" y="150" width="120" height="60" as="geometry" />
        </mxCell>
        <mxCell id="ZkP7bw6YxGhgmPXyzqwK-27" value="Linux images" style="rounded=1;whiteSpace=wrap;html=1;" vertex="1" parent="1">
          <mxGeometry x="320" y="120" width="120" height="40" as="geometry" />
        </mxCell>
        <mxCell id="ZkP7bw6YxGhgmPXyzqwK-28" value="other image files" style="rounded=1;whiteSpace=wrap;html=1;" vertex="1" parent="1">
          <mxGeometry x="320" y="200" width="120" height="40" as="geometry" />
        </mxCell>
        <mxCell id="ZkP7bw6YxGhgmPXyzqwK-31" value="TreeHub (OSTree repository)" style="rounded=0;whiteSpace=wrap;html=1;fillColor=#fad7ac;strokeColor=#b46504;verticalAlign=middle;fontStyle=1;fontSize=16;" vertex="1" parent="1">
          <mxGeometry y="923" width="360" height="70" as="geometry" />
        </mxCell>
        <mxCell id="ZkP7bw6YxGhgmPXyzqwK-32" value="OSTree Client" style="rounded=0;whiteSpace=wrap;html=1;fillColor=#fad7ac;strokeColor=#b46504;verticalAlign=bottom;fontStyle=1;fontSize=16;" vertex="1" parent="1">
          <mxGeometry y="1080" width="110" height="50" as="geometry" />
        </mxCell>
        <mxCell id="ZkP7bw6YxGhgmPXyzqwK-33" value="OSTree Client" style="rounded=0;whiteSpace=wrap;html=1;fillColor=#fad7ac;strokeColor=#b46504;verticalAlign=bottom;fontStyle=1;fontSize=16;" vertex="1" parent="1">
          <mxGeometry x="125" y="1080" width="110" height="50" as="geometry" />
        </mxCell>
        <mxCell id="ZkP7bw6YxGhgmPXyzqwK-34" value="OSTree Client" style="rounded=0;whiteSpace=wrap;html=1;fillColor=#fad7ac;strokeColor=#b46504;verticalAlign=bottom;fontStyle=1;fontSize=16;" vertex="1" parent="1">
          <mxGeometry x="250" y="1080" width="110" height="50" as="geometry" />
        </mxCell>
        <mxCell id="ZkP7bw6YxGhgmPXyzqwK-35" value="" style="shape=flexArrow;endArrow=classic;startArrow=classic;html=1;rounded=0;" edge="1" parent="1">
          <mxGeometry width="100" height="100" relative="1" as="geometry">
            <mxPoint x="304.58" y="1080" as="sourcePoint" />
            <mxPoint x="304.58" y="1000" as="targetPoint" />
          </mxGeometry>
        </mxCell>
        <mxCell id="ZkP7bw6YxGhgmPXyzqwK-36" value="" style="shape=flexArrow;endArrow=classic;startArrow=classic;html=1;rounded=0;" edge="1" parent="1">
          <mxGeometry width="100" height="100" relative="1" as="geometry">
            <mxPoint x="60" y="1080" as="sourcePoint" />
            <mxPoint x="60" y="1000" as="targetPoint" />
          </mxGeometry>
        </mxCell>
        <mxCell id="ZkP7bw6YxGhgmPXyzqwK-37" value="" style="shape=flexArrow;endArrow=classic;startArrow=classic;html=1;rounded=0;" edge="1" parent="1">
          <mxGeometry width="100" height="100" relative="1" as="geometry">
            <mxPoint x="180" y="1080" as="sourcePoint" />
            <mxPoint x="180" y="1000" as="targetPoint" />
          </mxGeometry>
        </mxCell>
      </root>
    </mxGraphModel>
  </diagram>
</mxfile>
